<?xml version="1.0" encoding="utf-8"?>
<!-- Generator: Adobe Illustrator 21.0.2, SVG Export Plug-In . SVG Version: 6.00 Build 0)  -->
<svg version="1.1" id="Layer_1" xmlns="http://www.w3.org/2000/svg" xmlns:xlink="http://www.w3.org/1999/xlink" x="0px" y="0px"
	 viewBox="0 0 77 93" style="enable-background:new 0 0 77 93;" xml:space="preserve">
<style type="text/css">
	.st0{fill:none;}
	.st1{fill:#0B5155;}
</style>
<rect x="5.2" y="41.9" class="st0" width="66.5" height="45.1"/>
<path class="st1" d="M68,0c-1.1,0-2,0.9-2,2v11c0,1.1,0.9,2,2,2s2-0.9,2-2V2C70,0.9,69.1,0,68,0z"/>
<path class="st1" d="M10.5,0c-1.1,0-2,0.9-2,2v11c0,1.1,0.9,2,2,2s2-0.9,2-2V2C12.5,0.9,11.6,0,10.5,0z"/>
<path class="st0" d="M68,17c-2.2,0-4-1.8-4-4v-0.5c-0.3,0.6-0.5,1.3-0.5,2c0,2.5,2,4.4,4.5,4.4c2.5,0,4.5-2,4.5-4.4
	c0-0.7-0.2-1.4-0.5-2V13C72,15.2,70.2,17,68,17z"/>
<path class="st0" d="M68,15c1.1,0,2-0.9,2-2v-2.5c-0.6-0.3-1.3-0.5-2-0.5c-0.7,0-1.4,0.2-2,0.5V13C66,14.1,66.9,15,68,15z"/>
<path class="st0" d="M12.5,2c0-1.1-0.9-2-2-2s-2,0.9-2,2v2.9h4V2z"/>
<path class="st0" d="M10.5,17c-2.2,0-4-1.8-4-4v-0.5c-0.3,0.6-0.5,1.3-0.5,2C6,17,8,19,10.5,19s4.5-2,4.5-4.4c0-0.7-0.2-1.4-0.5-2
	V13C14.5,15.2,12.7,17,10.5,17z"/>
<rect x="5.2" y="41.9" class="st0" width="66.5" height="45.1"/>
<path class="st0" d="M70,2c0-1.1-0.9-2-2-2s-2,0.9-2,2v2.9h4V2z"/>
<path class="st0" d="M10.5,15c1.1,0,2-0.9,2-2v-2.5c-0.6-0.3-1.3-0.5-2-0.5c-0.7,0-1.4,0.2-2,0.5V13C8.5,14.1,9.4,15,10.5,15z"/>
<path class="st1" d="M12.5,10.6V4.9h-4v5.7c0.6-0.3,1.3-0.5,2-0.5C11.2,10.1,11.9,10.3,12.5,10.6z"/>
<path class="st1" d="M70,10.6V4.9h-4v5.7c0.6-0.3,1.3-0.5,2-0.5C68.7,10.1,69.4,10.3,70,10.6z"/>
<path class="st1" d="M72,4.9v7.6c0.3,0.6,0.5,1.3,0.5,2c0,2.5-2,4.4-4.5,4.4c-2.5,0-4.5-2-4.5-4.4c0-0.7,0.2-1.4,0.5-2V4.9H14.5v7.6
	c0.3,0.6,0.5,1.3,0.5,2c0,2.5-2,4.4-4.5,4.4S6,17,6,14.5c0-0.7,0.2-1.4,0.5-2V4.9H0V93h77V4.9H72z M71.8,87.1H5.2V41.9h66.5V87.1z"
	/>
</svg>
