<?xml version="1.0" encoding="utf-8"?>
<!-- Generator: Adobe Illustrator 21.0.2, SVG Export Plug-In . SVG Version: 6.00 Build 0)  -->
<svg version="1.1" id="Layer_1" xmlns="http://www.w3.org/2000/svg" xmlns:xlink="http://www.w3.org/1999/xlink" x="0px" y="0px"
	 viewBox="0 0 42.5 44.6" style="enable-background:new 0 0 42.5 44.6;" xml:space="preserve">
<style type="text/css">
	.st0{fill:#FFFFFF;}
</style>
<path class="st0" d="M42.5,42.5l-11-11c6.9-7.3,6.9-18.9-0.2-26l-0.2-0.2C27.7,1.9,23.1,0,18.3,0h-0.1C13.3,0,8.7,2,5.3,5.5l0,0
	c-7.1,7.2-7.1,19,0,26.3L5.5,32c3.4,3.4,8,5.2,12.8,5.2h0.1c4,0,7.7-1.3,10.8-3.7l11.1,11.1L42.5,42.5z M18.4,34.2h-0.1
	c-4,0-7.8-1.6-10.7-4.4l-0.2-0.2c-6-6.1-6-16,0-22.1l0,0C10.3,4.6,14.1,3,18.2,3h0.1c4,0,7.8,1.6,10.7,4.4l0.2,0.2
	c6,6.1,6,16,0,22.1C26.3,32.5,22.5,34.1,18.4,34.2z"/>
</svg>
