<?xml version="1.0" encoding="utf-8"?>
<!-- Generator: Adobe Illustrator 21.0.0, SVG Export Plug-In . SVG Version: 6.00 Build 0)  -->
<svg version="1.1" id="Layer_1" xmlns="http://www.w3.org/2000/svg" xmlns:xlink="http://www.w3.org/1999/xlink" x="0px" y="0px"
	 viewBox="0 0 167.6 18.5" style="enable-background:new 0 0 167.6 18.5;" xml:space="preserve">
<style type="text/css">
	.st0{clip-path:url(#SVGID_2_);fill:#010101;}
</style>
<g>
	<defs>
		<rect id="SVGID_1_" width="167.6" height="18.5"/>
	</defs>
	<clipPath id="SVGID_2_">
		<use xlink:href="#SVGID_1_"  style="overflow:visible;"/>
	</clipPath>
	<path class="st0" d="M1.4,13.4V8.9h2.7c0.7,0,1.4,0,2,0.5c0.6,0.5,0.9,1.2,0.9,1.9c0,0.7-0.2,1.3-0.8,1.7c-0.5,0.4-1.3,0.5-1.9,0.5
		H1.4z M1.4,7.7v-4h2.7c0.6,0,1.1,0,1.7,0.3c0.6,0.4,0.9,0.9,0.9,1.7c0,0.6-0.3,1.3-0.8,1.6C5.3,7.8,4.5,7.7,3.8,7.7H1.4z M4.4,14.6
		c1.1,0,2-0.1,3-0.8c0.8-0.6,1.2-1.5,1.2-2.5c0-1.5-1-2.7-2.5-3.1v0c1.3-0.3,2.1-1.3,2.1-2.7c0-1-0.5-1.8-1.3-2.4
		C6.1,2.6,5.4,2.6,4.4,2.6H0v12H4.4z"/>
	<path class="st0" d="M11.4,10.1c0-0.7,0.1-1.6,0.4-2.2c0.4-0.8,1.2-1.3,2-1.3c0.8,0,1.5,0.4,1.9,1.1c0.5,0.7,0.6,1.6,0.6,2.5
		c0,0.8-0.1,1.6-0.4,2.3c-0.4,0.8-1.2,1.3-2.1,1.3c-0.8,0-1.6-0.4-2-1.1C11.5,11.8,11.4,10.9,11.4,10.1 M9.9,10.1
		c0,2.3,1.2,4.7,3.9,4.7c2.7,0,4.1-2.2,4.1-4.7c0-2.3-1.3-4.6-3.9-4.6C11.3,5.5,9.9,7.6,9.9,10.1"/>
	<path class="st0" d="M20.7,10.1c0-0.7,0.1-1.6,0.4-2.2c0.4-0.8,1.2-1.3,2-1.3c0.8,0,1.5,0.4,1.9,1.1c0.5,0.7,0.6,1.6,0.6,2.5
		c0,0.8-0.1,1.6-0.4,2.3c-0.4,0.8-1.2,1.3-2.1,1.3c-0.8,0-1.6-0.4-2-1.1C20.8,11.8,20.7,10.9,20.7,10.1 M19.2,10.1
		c0,2.3,1.2,4.7,3.9,4.7c2.7,0,4.1-2.2,4.1-4.7c0-2.3-1.3-4.6-3.9-4.6C20.6,5.5,19.2,7.6,19.2,10.1"/>
	<polygon class="st0" points="34.6,6.4 29.7,13.5 34.6,13.5 34.6,14.6 28,14.6 28,13.5 32.8,6.8 28.4,6.8 28.4,5.7 34.6,5.7 	"/>
	<rect x="42.4" class="st0" width="1.1" height="18.5"/>
	<path class="st0" d="M56.9,9.9h-3.7L55,4.2L56.9,9.9z M55.9,2.6h-1.6l-3.9,12h1.3l1.1-3.5h4.4l1.2,3.5h1.4L55.9,2.6z"/>
	<path class="st0" d="M70.1,9.2c0.1-1.4,1.1-2.7,2.6-2.7c1.6,0,2.5,1.2,2.5,2.7H70.1z M75.1,11.9c-0.4,1.1-1.3,1.7-2.4,1.7
		c-0.9,0-1.9-0.5-2.3-1.4c-0.3-0.7-0.4-1.3-0.4-2h6.5c0.1-2.5-1.1-4.8-3.9-4.8c-2.7,0-4.1,2.2-4.1,4.7c0,2.5,1.4,4.6,4.1,4.6
		c1.7,0,3.3-1,3.8-2.6L75.1,11.9z"/>
	<path class="st0" d="M79.8,7.2L79.8,7.2c0.5-1,1.6-1.7,2.8-1.7c1.1,0,2,0.5,2.5,1.4c0.5,0.8,0.4,1.9,0.4,2.8v4.9h-1.4V9.1
		c0-0.5,0-1.2-0.3-1.6c-0.3-0.5-0.9-0.8-1.5-0.8c-0.7,0-1.4,0.3-1.8,0.9C80,8.2,79.9,9,79.9,9.9v4.7h-1.4V5.7h1.3V7.2z"/>
	<path class="st0" d="M161.9,7.2L161.9,7.2c0.5-1,1.6-1.7,2.8-1.7c1.1,0,2,0.5,2.5,1.4c0.5,0.8,0.4,1.9,0.4,2.8v4.9h-1.4V9.1
		c0-0.5,0-1.2-0.2-1.6c-0.3-0.5-0.9-0.8-1.5-0.8c-0.7,0-1.4,0.3-1.8,0.9c-0.6,0.7-0.7,1.5-0.7,2.4v4.7h-1.4V5.7h1.3V7.2z"/>
	<rect x="93.4" class="st0" width="1.1" height="18.5"/>
	<polygon class="st0" points="110.1,14.6 110.1,8.8 104.5,8.8 104.5,14.6 103.1,14.6 103.1,2.6 104.5,2.6 104.5,7.7 110.1,7.7 
		110.1,2.6 111.5,2.6 111.5,14.6 	"/>
	<path class="st0" d="M119.5,10.7c0,1.6-1.1,3-2.8,3c-1.1,0-1.9-0.5-1.9-1.6c0-1.8,1.9-2,3.6-2h1.1V10.7z M118.3,9.1
		c-1.1,0-2.4,0.1-3.3,0.5c-1,0.4-1.6,1.4-1.6,2.5c0,1.8,1.4,2.7,3,2.7c1.4,0,2.4-0.6,3-1.8l0.2,1.7h1.3c-0.2-0.6-0.2-1.2-0.2-1.9
		V9.3c0-1,0-2.1-0.7-2.9c-0.7-0.8-1.7-0.9-2.7-0.9c-1.6,0-3.5,0.6-3.8,2.4l1.3,0.2c0.2-1.2,1.3-1.6,2.4-1.6c1.6,0,2.2,0.6,2.2,2.2
		v0.4H118.3z"/>
	<path class="st0" d="M124.4,5.7v1.6h0c0.4-1,1.5-1.8,2.7-1.8c1.3,0,2.3,0.9,2.5,2c0.4-1.1,1.5-2,2.9-2c0.9,0,1.8,0.5,2.2,1.3
		c0.4,0.7,0.4,1.7,0.4,2.5v5.3h-1.4V9.3c0-0.6,0-1.2-0.2-1.8c-0.3-0.6-0.9-0.9-1.5-0.9c-0.7,0-1.3,0.4-1.7,1
		c-0.5,0.7-0.5,1.4-0.5,2.2v4.8h-1.4V8.9c0-0.5,0-1.1-0.3-1.5c-0.3-0.5-0.9-0.9-1.5-0.9c-0.6,0-1.2,0.4-1.6,0.9
		c-0.5,0.6-0.5,1.3-0.5,2v5.1h-1.4V5.7H124.4z"/>
	<path class="st0" d="M139,14.6h-1.4V5.7h1.4V14.6z M139.1,4.1h-1.5V2.6h1.5V4.1z"/>
	<rect x="141.8" y="2.6" class="st0" width="1.3" height="12"/>
	<rect x="61.2" y="2.6" class="st0" width="1.3" height="12"/>
	<rect x="65.3" y="2.6" class="st0" width="1.3" height="12"/>
	<path class="st0" d="M150.1,14.7l-1.3,0.1c-1.9,0-2.5-1.1-2.5-2.9V6.7h-1.6V5.6h1.6V3.4l1.4-0.1v2.4h2v1.1h-2v5.4
		c0,1,0.3,1.6,1.4,1.6l1-0.1V14.7z"/>
	<path class="st0" d="M152.2,10.1c0-0.7,0.1-1.6,0.4-2.2c0.4-0.8,1.2-1.3,2-1.3c0.8,0,1.5,0.4,1.9,1.1c0.5,0.7,0.6,1.6,0.6,2.5
		c0,0.8-0.1,1.6-0.4,2.3c-0.4,0.8-1.1,1.3-2.1,1.3c-0.8,0-1.6-0.4-2-1.1C152.4,11.8,152.2,10.9,152.2,10.1 M150.8,10.1
		c0,2.3,1.2,4.7,3.9,4.7c2.7,0,4.1-2.2,4.1-4.7c0-2.3-1.3-4.6-3.9-4.6C152.1,5.5,150.8,7.6,150.8,10.1"/>
</g>
</svg>
