<?xml version="1.0" standalone="no"?>
<!DOCTYPE svg PUBLIC "-//W3C//DTD SVG 20010904//EN"
 "http://www.w3.org/TR/2001/REC-SVG-20010904/DTD/svg10.dtd">
<svg version="1.0" xmlns="http://www.w3.org/2000/svg"
 width="16.000000pt" height="16.000000pt" viewBox="0 0 16.000000 16.000000"
 preserveAspectRatio="xMidYMid meet">
<metadata>
Created by potrace 1.11, written by Peter Selinger 2001-2013
</metadata>
<g transform="translate(0.000000,16.000000) scale(0.006154,-0.006154)"
fill="#000000" stroke="none">
<path d="M417 2023 c-3 -7 -2 -597 2 -614 1 -8 294 -2 323 6 13 4 38 19 57 32
96 73 73 240 -39 281 l-25 9 33 17 c95 49 96 188 1 250 -37 25 -44 26 -193 26
-85 0 -157 -3 -159 -7z m314 -82 c49 -50 39 -134 -20 -161 -14 -7 -70 -14
-123 -16 l-98 -4 0 105 0 105 106 0 c103 0 106 -1 135 -29z m-69 -240 c64 -1
107 -38 115 -98 13 -100 -33 -133 -186 -133 l-101 0 0 113 c0 63 2 116 5 118
2 3 30 4 62 3 32 -1 79 -3 105 -3z"/>
<path d="M1046 1858 c-108 -55 -146 -222 -81 -354 30 -60 69 -90 138 -103 55
-10 133 13 172 49 94 89 95 290 1 377 -59 54 -158 68 -230 31z m153 -53 c44
-22 65 -77 65 -170 0 -66 -4 -87 -22 -117 -51 -83 -164 -79 -207 7 -27 54 -28
174 -1 228 31 62 102 85 165 52z"/>
<path d="M1561 1873 c-13 -2 -45 -26 -70 -51 -58 -58 -76 -113 -69 -212 9
-127 87 -211 196 -212 150 -1 241 133 208 307 -10 53 -49 119 -86 145 -30 21
-129 34 -179 23z m133 -74 c43 -34 59 -75 59 -159 0 -62 -4 -84 -23 -118 -48
-85 -153 -88 -207 -5 -14 21 -18 48 -18 124 0 83 3 102 21 126 41 56 119 71
168 32z"/>
<path d="M1898 1865 c-3 -3 -3 -16 0 -30 4 -24 6 -24 109 -24 58 0 107 -2 109
-4 2 -2 -51 -80 -117 -175 -95 -135 -120 -178 -117 -199 l3 -28 150 2 c193 2
182 1 188 16 12 33 -9 39 -132 39 l-121 1 16 26 c10 14 58 85 108 156 120 172
126 181 126 205 0 19 -6 20 -158 20 -87 0 -161 -2 -164 -5z"/>
<path d="M551 1118 c-30 -93 -152 -473 -165 -515 -7 -21 -4 -23 26 -23 34 0
34 1 57 78 12 42 24 83 26 90 5 15 18 16 183 13 l57 -1 31 -88 c31 -87 31 -87
67 -90 21 -2 37 1 37 6 0 5 -45 147 -100 315 l-101 307 -44 0 -43 0 -31 -92z
m118 -143 c23 -74 40 -139 37 -144 -6 -9 -162 -8 -172 1 -6 7 78 278 87 278 3
0 25 -61 48 -135z"/>
<path d="M950 895 l0 -315 35 0 35 0 0 315 0 315 -35 0 -35 0 0 -315z"/>
<path d="M1165 898 l0 -313 35 -3 35 -3 0 316 0 315 -35 0 -35 0 0 -312z"/>
<path d="M1474 1045 c-104 -44 -157 -160 -133 -292 18 -94 59 -145 138 -172
95 -32 212 13 256 99 14 27 14 28 -17 32 -27 4 -37 -1 -68 -33 -40 -42 -74
-54 -125 -45 -50 10 -90 48 -105 100 -20 73 -22 73 160 74 88 1 165 4 169 7
12 7 2 73 -18 120 -20 46 -55 86 -89 104 -34 18 -132 21 -168 6z m135 -59 c34
-18 64 -61 65 -95 l1 -26 -127 -3 c-123 -2 -128 -2 -128 18 0 84 111 146 189
106z"/>
<path d="M2017 1046 c-20 -7 -47 -27 -60 -42 l-22 -29 -5 35 c-4 31 -9 35 -37
37 l-33 3 0 -235 0 -235 35 0 35 0 1 123 c1 165 4 191 25 227 44 74 168 84
191 16 4 -12 8 -97 8 -189 2 -180 4 -188 51 -179 l24 4 0 183 c0 172 -1 184
-22 215 -48 70 -117 94 -191 66z"/>
</g>
</svg>
